<?xml version="1.0" encoding="UTF-8"?>
<!DOCTYPE svg PUBLIC "-//W3C//DTD SVG 1.1//EN" "http://www.w3.org/Graphics/SVG/1.1/DTD/svg11.dtd">
<svg xmlns="http://www.w3.org/2000/svg" version="1.1" width="1058px" height="770px" style="shape-rendering:geometricPrecision; text-rendering:geometricPrecision; image-rendering:optimizeQuality; fill-rule:evenodd; clip-rule:evenodd" xmlns:xlink="http://www.w3.org/1999/xlink">
<g><path style="opacity:1" fill="#e6e6e6" d="M 423.5,353.5 C 519.167,353.5 614.833,353.5 710.5,353.5C 645.335,354.499 580.002,354.832 514.5,354.5C 514.333,462.834 514.5,571.167 515,679.5C 515.465,680.931 516.299,682.097 517.5,683C 636.5,683.667 755.5,683.667 874.5,683C 875.333,682.167 876.167,681.333 877,680.5C 877.667,482.167 877.667,283.833 877,85.5C 876.5,84.3333 875.667,83.5 874.5,83C 755.5,82.3333 636.5,82.3333 517.5,83C 516.299,83.9025 515.465,85.0692 515,86.5C 514.5,132.165 514.333,177.832 514.5,223.5C 513.833,223.5 513.167,223.5 512.5,223.5C 512.333,176.832 512.5,130.165 513,83.5C 514.214,81.9512 515.714,80.7845 517.5,80C 636.5,79.3333 755.5,79.3333 874.5,80C 877.333,80.8333 879.167,82.6667 880,85.5C 880.333,225.167 880.667,364.833 881,504.5C 884.381,484.974 886.381,465.308 887,445.5C 905.798,500.672 910.798,557.006 902,614.5C 915.346,597.816 926.68,579.816 936,560.5C 933.187,598.284 920.52,632.284 898,662.5C 890.086,670.414 882.252,678.248 874.5,686C 755.5,686.667 636.5,686.667 517.5,686C 515.714,685.215 514.214,684.049 513,682.5C 512.5,573.167 512.333,463.834 512.5,354.5C 482.662,354.831 452.995,354.498 423.5,353.5 Z"/></g>
<g><path style="opacity:1" fill="#e5e5e6" d="M 713.5,257.5 C 713.667,246.828 713.5,236.161 713,225.5C 712.5,225 712,224.5 711.5,224C 655.834,223.5 600.168,223.333 544.5,223.5C 544.171,190.26 544.504,157.093 545.5,124C 645.833,123.333 746.167,123.333 846.5,124C 847.663,168.096 847.83,212.262 847,256.5C 802.572,257.497 758.072,257.83 713.5,257.5 Z"/></g>
<g><path style="opacity:1" fill="#313043" d="M 351.5,218.5 C 336.867,234.015 333.2,251.682 340.5,271.5C 342.153,274.807 343.82,278.14 345.5,281.5C 341.488,282.698 337.488,282.698 333.5,281.5C 327.669,280.585 321.669,279.918 315.5,279.5C 316.776,273.185 317.609,266.852 318,260.5C 314.326,265.844 311.16,271.51 308.5,277.5C 302.501,278.643 296.501,278.643 290.5,277.5C 283.493,277.166 276.493,276.666 269.5,276C 263.999,270.341 261.333,263.508 261.5,255.5C 263.379,234.575 272.046,217.075 287.5,203C 291.847,199.327 296.847,196.994 302.5,196C 312.046,194.967 321.713,194.633 331.5,195C 341.262,198.089 349.429,203.589 356,211.5C 356.667,212.167 356.667,212.833 356,213.5C 354.293,215.037 352.793,216.704 351.5,218.5 Z"/></g>
<g><path style="opacity:1" fill="#ebb6b8" d="M 351.5,218.5 C 363.316,239.422 359.649,257.088 340.5,271.5C 333.2,251.682 336.867,234.015 351.5,218.5 Z"/></g>
<g><path style="opacity:1" fill="#6c63fe" d="M 512.5,223.5 C 513.167,223.5 513.833,223.5 514.5,223.5C 524.5,223.5 534.5,223.5 544.5,223.5C 600.168,223.333 655.834,223.5 711.5,224C 712,224.5 712.5,225 713,225.5C 713.5,236.161 713.667,246.828 713.5,257.5C 713.667,289.168 713.5,320.835 713,352.5C 712.329,353.252 711.496,353.586 710.5,353.5C 614.833,353.5 519.167,353.5 423.5,353.5C 421.5,353.5 420.5,352.5 420.5,350.5C 420.334,340.828 420.5,331.161 421,321.5C 429.899,309.803 435.066,296.636 436.5,282C 436.572,278.71 436.072,275.544 435,272.5C 433.612,271.446 432.112,271.28 430.5,272C 428.623,274.251 427.123,276.751 426,279.5C 424.613,284.604 422.946,289.604 421,294.5C 421.818,288.39 422.652,282.223 423.5,276C 423.792,272.786 422.959,269.952 421,267.5C 420.5,253.837 420.333,240.171 420.5,226.5C 420.414,225.504 420.748,224.671 421.5,224C 451.832,223.5 482.165,223.333 512.5,223.5 Z"/></g>
<g><path style="opacity:1" fill="#fdfdff" d="M 494.5,259.5 C 519.673,259.171 531.173,271.504 529,296.5C 522.833,312.977 511,319.81 493.5,317C 477.569,310.972 470.402,299.472 472,282.5C 475.71,270.958 483.21,263.291 494.5,259.5 Z"/></g>
<g><path style="opacity:1" fill="#e5b3b6" d="M 333.5,281.5 C 332.167,281.5 330.833,281.5 329.5,281.5C 329.089,285.221 328.422,288.888 327.5,292.5C 317.208,282.294 304.875,277.627 290.5,278.5C 290.5,278.167 290.5,277.833 290.5,277.5C 296.501,278.643 302.501,278.643 308.5,277.5C 311.16,271.51 314.326,265.844 318,260.5C 317.609,266.852 316.776,273.185 315.5,279.5C 321.669,279.918 327.669,280.585 333.5,281.5 Z"/></g>
<g><path style="opacity:1" fill="#fefeff" d="M 564.5,265.5 C 581.17,265.333 597.837,265.5 614.5,266C 615.833,267.667 615.833,269.333 614.5,271C 597.833,271.667 581.167,271.667 564.5,271C 563.248,269.172 563.248,267.339 564.5,265.5 Z"/></g>
<g><path style="opacity:1" fill="#eeb8bb" d="M 420.5,226.5 C 420.333,240.171 420.5,253.837 421,267.5C 422.959,269.952 423.792,272.786 423.5,276C 422.652,282.223 421.818,288.39 421,294.5C 422.946,289.604 424.613,284.604 426,279.5C 427.123,276.751 428.623,274.251 430.5,272C 432.112,271.28 433.612,271.446 435,272.5C 436.072,275.544 436.572,278.71 436.5,282C 435.066,296.636 429.899,309.803 421,321.5C 420.5,331.161 420.334,340.828 420.5,350.5C 419.67,341.676 419.17,332.676 419,323.5C 407.931,333.637 398.265,344.97 390,357.5C 386.922,361.085 383.422,364.085 379.5,366.5C 379.906,358.083 379.406,349.749 378,341.5C 377.439,340.978 376.772,340.645 376,340.5C 372.851,341.578 369.684,342.578 366.5,343.5C 365.579,341.223 364.913,338.89 364.5,336.5C 374.104,328.068 383.604,319.401 393,310.5C 402.658,299.827 409.325,287.493 413,273.5C 413.911,270.424 415.744,268.091 418.5,266.5C 419.167,253.006 419.833,239.673 420.5,226.5 Z"/></g>
<g><path style="opacity:1" fill="#e5e5e5" d="M 290.5,278.5 C 304.875,277.627 317.208,282.294 327.5,292.5C 337.594,303.95 341.76,317.283 340,332.5C 341.645,336.132 343.979,339.132 347,341.5C 352.712,339.317 358.545,337.651 364.5,336.5C 364.913,338.89 365.579,341.223 366.5,343.5C 369.684,342.578 372.851,341.578 376,340.5C 376.772,340.645 377.439,340.978 378,341.5C 379.406,349.749 379.906,358.083 379.5,366.5C 379.698,368.575 379.865,370.575 380,372.5C 368.701,379.023 356.535,381.856 343.5,381C 337.403,377.201 331.569,373.035 326,368.5C 324.305,373.339 323.471,378.339 323.5,383.5C 322.539,381.735 322.205,379.735 322.5,377.5C 303.941,379.522 285.608,378.522 267.5,374.5C 265.799,374.966 264.299,374.966 263,374.5C 262.833,372.5 262.667,370.5 262.5,368.5C 263.973,355.211 264.806,341.878 265,328.5C 265.643,314.91 269.31,302.244 276,290.5C 280.667,286.113 285.5,282.113 290.5,278.5 Z"/></g>
<g><path style="opacity:1" fill="#f9f9ff" d="M 565.5,284.5 C 597.168,284.333 628.835,284.5 660.5,285C 661.833,287 661.833,289 660.5,291C 628.5,291.667 596.5,291.667 564.5,291C 563.144,288.586 563.478,286.419 565.5,284.5 Z"/></g>
<g><path style="opacity:1" fill="#cfcfcf" d="M 286.5,295.5 C 287.239,295.369 287.906,295.536 288.5,296C 284.765,304.328 284.598,312.828 288,321.5C 296.413,338.411 308.247,352.411 323.5,363.5C 322.959,365.535 322.292,367.535 321.5,369.5C 301.599,357.433 287.766,340.433 280,318.5C 278.295,309.641 280.462,301.974 286.5,295.5 Z"/></g>
<g><path style="opacity:1" fill="#faf9ff" d="M 564.5,305.5 C 596.502,305.333 628.502,305.5 660.5,306C 662.032,308.33 661.698,310.33 659.5,312C 628.167,312.667 596.833,312.667 565.5,312C 563.316,310.102 562.983,307.936 564.5,305.5 Z"/></g>
<g><path style="opacity:1" fill="#302f42" d="M 267.5,374.5 C 285.608,378.522 303.941,379.522 322.5,377.5C 322.205,379.735 322.539,381.735 323.5,383.5C 324.711,389.922 327.544,395.589 332,400.5C 336.824,409.146 340.824,418.146 344,427.5C 350.641,452.088 358.474,476.255 367.5,500C 366.594,502.221 365.594,504.388 364.5,506.5C 362.195,507.989 359.862,509.489 357.5,511C 347.245,514.644 336.911,517.477 326.5,519.5C 322.189,521.419 318.689,520.419 316,516.5C 310.251,506.666 304.251,496.999 298,487.5C 294.482,483.561 291.816,484.228 290,489.5C 287.54,499.466 285.207,509.466 283,519.5C 282.34,521.324 281.173,522.657 279.5,523.5C 269.161,523.666 258.828,523.5 248.5,523C 240.466,521.981 233.466,518.814 227.5,513.5C 224.588,513.211 222.588,511.711 221.5,509C 229.174,476.975 238.674,445.475 250,414.5C 251.894,409.608 254.228,404.941 257,400.5C 264.648,393.534 268.148,384.867 267.5,374.5 Z"/></g>
<g><path style="opacity:1" fill="#e6e6e6" d="M 591.5,387.5 C 600.549,387.701 603.215,391.868 599.5,400C 590.956,403.322 587.123,400.489 588,391.5C 588.69,389.65 589.856,388.316 591.5,387.5 Z"/></g>
<g><path style="opacity:1" fill="#e7e7e7" d="M 623.5,390.5 C 683.168,390.333 742.834,390.5 802.5,391C 805.054,393.398 805.054,395.731 802.5,398C 742.833,398.667 683.167,398.667 623.5,398C 619.649,395.524 619.649,393.024 623.5,390.5 Z"/></g>
<g><path style="opacity:1" fill="#e6e6e6" d="M 592.5,422.5 C 599.193,422.685 602.026,426.019 601,432.5C 598.487,436.212 594.987,437.378 590.5,436C 586.034,430.636 586.7,426.136 592.5,422.5 Z"/></g>
<g><path style="opacity:1" fill="#e6e6e6" d="M 621.5,426.5 C 682.168,426.333 742.834,426.5 803.5,427C 806.158,429.386 805.825,431.386 802.5,433C 742.5,433.667 682.5,433.667 622.5,433C 620.166,431.158 619.832,428.991 621.5,426.5 Z"/></g>
<g><path style="opacity:1" fill="#e7e8e7" d="M 885.5,443.5 C 886.833,444.167 886.833,444.167 885.5,443.5 Z"/></g>
<g><path style="opacity:1" fill="#e6e6e6" d="M 592.5,457.5 C 600.339,458.18 602.839,462.18 600,469.5C 595.755,473.406 591.755,473.073 588,468.5C 586.393,463.438 587.893,459.772 592.5,457.5 Z"/></g>
<g><path style="opacity:1" fill="#e6e6e6" d="M 622.5,461.5 C 682.834,461.333 743.168,461.5 803.5,462C 806.167,464 806.167,466 803.5,468C 743.167,468.667 682.833,468.667 622.5,468C 619.939,465.844 619.939,463.677 622.5,461.5 Z"/></g>
<g><path style="opacity:1" fill="#e6e6e6" d="M 590.5,493.5 C 596.766,492.117 600.433,494.45 601.5,500.5C 598.6,508.349 594.1,509.349 588,503.5C 587.024,499.673 587.857,496.34 590.5,493.5 Z"/></g>
<g><path style="opacity:1" fill="#e6e6e6" d="M 622.5,496.5 C 682.834,496.333 743.168,496.5 803.5,497C 806.167,499 806.167,501 803.5,503C 743.167,503.667 682.833,503.667 622.5,503C 619.939,500.844 619.939,498.677 622.5,496.5 Z"/></g>
<g><path style="opacity:1" fill="#eeb7b9" d="M 364.5,506.5 C 371.622,513.739 375.122,522.406 375,532.5C 359.095,569.379 345.262,607.046 333.5,645.5C 326.816,641.805 320.15,638.138 313.5,634.5C 321.795,601.701 329.461,568.701 336.5,535.5C 335.156,528.843 331.823,523.51 326.5,519.5C 336.911,517.477 347.245,514.644 357.5,511C 359.862,509.489 362.195,507.989 364.5,506.5 Z"/></g>
<g><path style="opacity:1" fill="#eeb7b9" d="M 227.5,513.5 C 233.466,518.814 240.466,521.981 248.5,523C 258.828,523.5 269.161,523.666 279.5,523.5C 277.212,524.074 275.045,525.074 273,526.5C 264.123,539.05 254.123,550.717 243,561.5C 224.333,584.167 205.667,606.833 187,629.5C 186.023,631.74 185.523,634.073 185.5,636.5C 179.075,632.621 172.408,629.287 165.5,626.5C 168.447,623.981 170.947,620.981 173,617.5C 193.522,584.125 211.689,549.458 227.5,513.5 Z"/></g>
<g><path style="opacity:1" fill="#e6e6e6" d="M 591.5,528.5 C 599.33,527.495 602.496,530.828 601,538.5C 596.571,543.808 592.237,543.808 588,538.5C 586.756,534.191 587.923,530.858 591.5,528.5 Z"/></g>
<g><path style="opacity:1" fill="#e6e6e6" d="M 623.5,531.5 C 683.168,531.333 742.834,531.5 802.5,532C 805.28,534.77 804.946,537.104 801.5,539C 742.167,539.667 682.833,539.667 623.5,539C 619.649,536.524 619.649,534.024 623.5,531.5 Z"/></g>
<g><path style="opacity:1" fill="#e6e6e6" d="M 591.5,563.5 C 600.549,563.701 603.215,567.868 599.5,576C 590.956,579.322 587.123,576.489 588,567.5C 588.69,565.65 589.856,564.316 591.5,563.5 Z"/></g>
<g><path style="opacity:1" fill="#e6e6e6" d="M 624.5,566.5 C 683.501,566.333 742.501,566.5 801.5,567C 804.946,568.896 805.28,571.23 802.5,574C 742.833,574.667 683.167,574.667 623.5,574C 619.573,571 619.907,568.5 624.5,566.5 Z"/></g>
<g><path style="opacity:1" fill="#e6e6e6" d="M 592.5,598.5 C 601.897,599.727 603.897,604.227 598.5,612C 590.225,614.057 586.725,610.89 588,602.5C 589.397,600.93 590.897,599.596 592.5,598.5 Z"/></g>
<g><path style="opacity:1" fill="#e6e6e6" d="M 622.5,602.5 C 682.834,602.333 743.168,602.5 803.5,603C 806.167,605 806.167,607 803.5,609C 743.167,609.667 682.833,609.667 622.5,609C 619.939,606.844 619.939,604.677 622.5,602.5 Z"/></g>
<g><path style="opacity:1" fill="#333245" d="M 165.5,626.5 C 172.408,629.287 179.075,632.621 185.5,636.5C 191.597,646.691 196.597,657.358 200.5,668.5C 198.572,675.638 193.905,678.471 186.5,677C 182.137,673.824 177.804,670.657 173.5,667.5C 167.196,663.01 160.863,658.51 154.5,654C 148.611,650.108 147.111,644.942 150,638.5C 154.776,633.878 159.942,629.878 165.5,626.5 Z"/></g>
<g><path style="opacity:1" fill="#333245" d="M 313.5,634.5 C 320.15,638.138 326.816,641.805 333.5,645.5C 338.692,654.55 343.358,663.883 347.5,673.5C 348.199,682.969 343.866,687.135 334.5,686C 330.646,682.911 326.646,680.078 322.5,677.5C 314.378,671.885 306.378,666.051 298.5,660C 295.002,655.554 294.835,651.054 298,646.5C 303.328,642.667 308.495,638.667 313.5,634.5 Z"/></g>
<g><path style="opacity:1" fill="#e5e5e5" d="M 173.5,667.5 C 177.804,670.657 182.137,673.824 186.5,677C 193.905,678.471 198.572,675.638 200.5,668.5C 217.927,668.999 235.594,670.165 253.5,672C 255.608,672.36 257.608,673.027 259.5,674C 249.324,676.427 238.991,677.761 228.5,678C 202.167,678.667 175.833,678.667 149.5,678C 139.348,677.687 129.348,676.354 119.5,674C 127.958,671.525 136.625,670.192 145.5,670C 154.411,669.819 163.245,669.319 172,668.5C 173.107,669.712 173.607,669.379 173.5,667.5 Z"/></g>
<g><path style="opacity:1" fill="#e4e4e5" d="M 347.5,673.5 C 348.451,674.919 348.784,676.585 348.5,678.5C 366.935,678.921 385.602,680.087 404.5,682C 406.608,682.36 408.608,683.027 410.5,684C 400.324,686.427 389.991,687.761 379.5,688C 353.167,688.667 326.833,688.667 300.5,688C 290.348,687.687 280.348,686.354 270.5,684C 271.167,683.667 271.833,683.333 272.5,683C 289.421,680.793 306.088,678.96 322.5,677.5C 326.646,680.078 330.646,682.911 334.5,686C 343.866,687.135 348.199,682.969 347.5,673.5 Z"/></g>
</svg>
